<svg xmlns="http://www.w3.org/2000/svg" width="100%" height="100%" viewBox="0 0 512 512" clip-rule="evenodd" fill-rule="evenodd" stroke-linejoin="round" stroke-miterlimit="2"><style>
@keyframes cjmgceurcdarbb4zz31l61tf_t { 0% { transform: translate(23.8px,-1520.3px); } 100% { transform: translate(-1877.9px,360.1px); } }
@keyframes q92bkj576ua5ny17s5dx6idn_t { 0% { transform: translate(-2.4px,15px); } 33.333% { transform: translate(-21px,10.7px); } 66.667% { transform: translate(-11.1px,-2.3px); } 100% { transform: translate(-2.4px,15px); } }
@keyframes h3zpbepozjf685w9u35f999d_t { 0% { transform: translate(0px,0px); } 16.667% { transform: translate(-8px,10.1px); } 33.333% { transform: translate(2.6px,4.9px); } 50% { transform: translate(14.6px,-6.7px); } 66.667% { transform: translate(2.6px,4.9px); } 83.333% { transform: translate(-8px,15.6px); } 100% { transform: translate(0px,0px); } }
</style><g transform="translate(1031.5,-559.1) translate(-1007.8,-961.1)" style="animation: 3s linear infinite both cjmgceurcdarbb4zz31l61tf_t;"><path d="M204.3 1563.4c-1.7-3.6-7.2-3.6-8.9 0l-7.6 16.5l-16.9 2.6c-1.9 .3-3.4 1.8-4 3.7c-0.6 1.9-0.1 4 1.3 5.4l12.2 12.8l-2.9 18.2c-0.3 2 .5 4 2 5.2c.8 .7 1.8 1 2.9 1c.7 0 1.6-0.2 2.3-0.6l15.1-8.6l15.2 8.4c.7 .4 1.5 .5 2.2 .5c.1 0 .1 0 .1 0c2.8 0 5-2.2 5-5.2c0-0.7-0.1-1.2-0.3-1.8l-2.7-17.1l12.2-12.8c1.4-1.4 1.8-3.5 1.3-5.4c-0.6-2-2.2-3.4-4-3.7l-17-2.6l-7.5-16.5Z"/><path d="M499.8 1867.7c-1.2-2.4-5.1-2.4-6.3 0l-5.4 10.8l-11.9 1.8c-1.4 .2-2.5 1.1-2.9 2.3c-0.4 1.3 0 2.7 .9 3.7l8.7 8.4l-2.1 11.9c-0.2 1.4 .4 2.7 1.4 3.5c.7 .4 1.4 .7 2.1 .7c.5 0 1.1-0.2 1.6-0.5l10.7-5.6l10.8 5.5c.5 .3 1 .3 1.6 .3c0 0 .1 0 .1 0c1.9 0 3.5-1.4 3.5-3.4c0-0.4-0.1-0.8-0.2-1.2l-2-11.2l8.7-8.5c.9-0.9 1.3-2.3 .9-3.6c-0.4-1.2-1.5-2.2-2.9-2.3l-11.9-1.8l-5.4-10.8Z"/><path d="M769.5 1505.8c-1-1.9-4.1-1.9-5 0l-4.3 8.7l-9.6 1.4c-1.1 .1-2 .9-2.3 1.9c-0.3 1-0.1 2.1 .7 2.9l7 6.7l-1.7 9.6c-0.2 1.1 .3 2.1 1.1 2.8c.5 .3 1.1 .5 1.7 .5c.4 0 .9-0.1 1.3-0.4l8.6-4.5l8.5 4.5c.5 .2 .9 .2 1.3 .2c.1 0 .1 0 .1 0c1.6 0 2.8-1.2 2.8-2.7c0-0.4 0-0.6-0.2-1l-1.5-9l6.9-6.7c.8-0.8 1.1-1.9 .7-2.9c-0.3-1-1.2-1.8-2.2-1.9l-9.6-1.4l-4.3-8.7Z"/><path d="M888.8 1389.2c-2.1-4.3-9.1-4.3-11.2 0l-9.6 19.4l-21.5 3.1c-2.3 .3-4.3 2.1-5 4.3c-0.7 2.3-0.2 4.8 1.6 6.4l15.5 15.2l-3.7 21.3c-0.4 2.4 .6 4.7 2.5 6.2c1.1 .8 2.3 1.2 3.7 1.2c.9 0 2-0.3 2.9-0.8l19.1-10.1l19.2 10c1 .4 1.9 .5 2.9 .5c.1 0 .2 0 .2 0c3.4 0 6.3-2.6 6.3-6.1c0-0.8-0.2-1.4-0.4-2.1l-3.5-20.1l15.5-15.2c1.7-1.6 2.3-4.1 1.6-6.4c-0.7-2.3-2.7-4-5.1-4.3l-21.4-3.1l-9.6-19.4Z"/><path d="M1024.7 1250.3c-1-1.8-4-1.8-4.9 0l-4.1 8.4l-9.2 1.3c-1 .2-1.9 .9-2.2 1.9c-0.3 1-0.1 2 .7 2.7l6.6 6.6l-1.5 9.1c-0.2 1.1 .2 2.1 1 2.7c.5 .3 1.1 .5 1.6 .5c.4 0 .9-0.1 1.3-0.3l8.2-4.4l8.3 4.3c.4 .2 .8 .2 1.2 .2c0 0 .1 0 .1 0c1.5 0 2.7-1.1 2.7-2.6c0-0.3-0.1-0.6-0.2-0.9l-1.5-8.6l6.7-6.6c.7-0.7 1-1.7 .7-2.7c-0.3-1-1.2-1.7-2.2-1.9l-9.2-1.3l-4.1-8.4Z"/><path d="M1247.6 615.2c-1.5-3-6.4-3-7.9 0l-6.7 13.7l-15.1 2.1c-1.6 .3-3 1.5-3.5 3c-0.5 1.7-0.1 3.4 1.1 4.6l10.9 10.6l-2.6 15c-0.3 1.6 .4 3.3 1.8 4.3c.7 .6 1.6 .8 2.5 .8c.7 0 1.5-0.2 2.1-0.5l13.4-7.1l13.5 7c.7 .3 1.3 .4 2 .4c.1 0 .1 0 .1 0c2.5 0 4.5-1.9 4.5-4.3c0-0.6-0.1-1-0.3-1.5l-2.5-14.1l10.9-10.6c1.2-1.2 1.6-2.9 1.1-4.6c-0.5-1.6-1.9-2.7-3.5-3l-15.1-2.1l-6.7-13.7Z"/><path d="M1420.6 399.2c-1.5-3-6.4-3-7.9 0l-6.7 13.7l-15.1 2.1c-1.6 .3-3 1.5-3.5 3c-0.5 1.7-0.1 3.4 1.1 4.6l10.9 10.6l-2.6 15c-0.3 1.6 .4 3.3 1.8 4.3c.7 .6 1.6 .8 2.5 .8c.7 0 1.5-0.2 2.1-0.5l13.4-7.1l13.5 7c.7 .3 1.3 .4 2 .4c.1 0 .1 0 .1 0c2.5 0 4.5-1.9 4.5-4.3c0-0.6-0.1-1-0.3-1.5l-2.5-14.1l10.9-10.6c1.2-1.2 1.6-2.9 1.1-4.6c-0.5-1.6-1.9-2.7-3.5-3l-15.1-2.1l-6.7-13.7Z"/><path d="M1845.3-1.6c-1.5-3-6.4-3-7.9 0l-6.7 13.7l-15.1 2.1c-1.6 .3-3 1.5-3.5 3c-0.5 1.7-0.1 3.4 1.1 4.6l10.9 10.6l-2.6 15c-0.3 1.6 .4 3.3 1.8 4.3c.7 .6 1.6 .8 2.5 .8c.7 0 1.5-0.2 2.1-0.5l13.4-7.1l13.5 7c.7 .3 1.3 .4 2 .4c.1 0 .1 0 .1 0c2.5 0 4.5-1.9 4.5-4.3c0-0.6-0.1-1-0.3-1.5l-2.5-14.1l10.9-10.6c1.2-1.2 1.6-2.9 1.1-4.6c-0.5-1.6-1.9-2.7-3.5-3l-15.1-2.1l-6.7-13.7Z"/><path d="M2173 169.3c-1.5-3-6.4-3-7.9 0l-6.7 13.7l-15.1 2.1c-1.6 .3-3 1.5-3.5 3c-0.5 1.7-0.1 3.4 1.1 4.6l10.9 10.6l-2.6 15c-0.3 1.6 .4 3.3 1.8 4.3c.7 .6 1.6 .8 2.5 .8c.7 0 1.5-0.2 2.1-0.5l13.4-7.1l13.5 7c.6 .3 1.3 .4 2 .4c.1 0 .1 0 .1 0c2.5 0 4.4-1.9 4.4-4.3c0-0.6 0-1-0.2-1.5l-2.5-14.1l10.9-10.6c1.2-1.2 1.6-2.9 1.1-4.6c-0.5-1.6-1.9-2.7-3.5-3l-15.1-2.1l-6.7-13.7Z"/><path d="M2211.9 282.6c-1.5-3-6.4-3-7.9 0l-6.7 13.7l-15.1 2.1c-1.6 .3-3 1.5-3.5 3c-0.5 1.7-0.1 3.4 1.1 4.6l10.9 10.6l-2.6 15c-0.3 1.6 .4 3.3 1.8 4.3c.7 .6 1.6 .8 2.5 .8c.7 0 1.5-0.2 2.1-0.5l13.4-7.1l13.5 7c.6 .3 1.3 .4 2 .4c.1 0 .1 0 .1 0c2.5 0 4.4-1.9 4.4-4.3c0-0.6 0-1-0.2-1.5l-2.5-14.1l10.9-10.6c1.2-1.2 1.6-2.9 1.1-4.6c-0.5-1.6-1.9-2.7-3.5-3l-15.1-2.1l-6.7-13.7Z"/><path d="M1820.5-291.2c-2-4-8.6-4-10.6 0l-9 18.3l-20.2 2.9c-2.2 .4-4.1 2-4.7 4.1c-0.7 2.1-0.2 4.5 1.4 6l14.6 14.3l-3.4 20.1c-0.4 2.2 .5 4.5 2.3 5.8c1.1 .8 2.3 1.1 3.5 1.1c.9 0 1.9-0.2 2.7-0.7l18.1-9.5l18.1 9.4c.9 .4 1.8 .5 2.7 .5c.1 0 .1 0 .1 0c3.3 0 6-2.5 6-5.8c0-0.7-0.1-1.3-0.4-2l-3.3-18.9l14.6-14.3c1.6-1.5 2.2-3.9 1.5-6c-0.7-2.2-2.5-3.7-4.7-4.1l-20.2-2.9l-9.1-18.3Z"/><path d="M1704.5 1.7c-1.1-2.3-4.9-2.3-6 0l-5.1 10.4l-11.5 1.6c-1.2 .2-2.3 1.1-2.7 2.3c-0.4 1.2 0 2.6 .9 3.4l8.3 8.1l-2 11.4c-0.2 1.3 .3 2.6 1.3 3.3c.6 .4 1.3 .7 2 .7c.5 0 1.1-0.2 1.5-0.5l10.3-5.4l10.2 5.4c.5 .2 1.1 .2 1.6 .2c0 0 0 0 0 0c1.9 0 3.4-1.4 3.4-3.2c0-0.4-0.1-0.8-0.2-1.1l-1.9-10.8l8.3-8.1c1-0.8 1.3-2.2 .9-3.4c-0.4-1.2-1.5-2.1-2.7-2.3l-11.5-1.6l-5.1-10.4Z"/><path d="M1561.6 102.8c-2.5-5.1-10.9-5.1-13.4 0l-11.5 23.3l-25.7 3.7c-2.8 .4-5.2 2.5-6.1 5.1c-0.8 2.8-0.1 5.8 1.9 7.8l18.6 18.1l-4.4 25.6c-0.5 2.8 .7 5.7 3 7.4c1.3 .9 2.8 1.4 4.4 1.4c1.2 0 2.5-0.3 3.5-0.9l23-12.2l23 12c1.1 .6 2.2 .6 3.4 .6c.1 0 .2 0 .2 0c4.2 0 7.6-3.1 7.6-7.3c0-0.9-0.2-1.6-0.5-2.5l-4.2-24.1l18.6-18.1c2.1-2 2.8-5 1.9-7.8c-0.9-2.7-3.2-4.7-6.1-5.1l-25.7-3.7l-11.5-23.3Z"/><path d="M1997.3 603.5c-1.8-3.6-7.8-3.6-9.6 0l-8.2 16.6l-18.4 2.7c-2 .3-3.6 1.7-4.3 3.6c-0.6 2-0.1 4.1 1.4 5.5l13.2 13l-3.1 18.2c-0.4 2 .5 4.1 2.1 5.3c1 .7 2 1 3.2 1c.8 0 1.7-0.2 2.4-0.7l16.4-8.6l16.4 8.5c.8 .4 1.7 .5 2.5 .5c.1 0 .1 0 .1 0c3 0 5.4-2.3 5.4-5.3c0-0.6-0.1-1.1-0.3-1.8l-3-17.1l13.3-13c1.4-1.4 1.9-3.5 1.3-5.5c-0.6-1.9-2.3-3.3-4.3-3.6l-18.3-2.7l-8.2-16.6Z"/><path d="M1950.8 485c-0.9-1.8-3.8-1.8-4.7 0l-4.1 8.2l-9 1.3c-1 .1-1.8 .9-2.1 1.8c-0.3 1-0.1 2 .7 2.7l6.5 6.4l-1.6 9c-0.1 .9 .3 1.9 1.1 2.6c.5 .3 1 .5 1.5 .5c.4 0 .9-0.2 1.2-0.4l8.1-4.2l8.1 4.2c.4 .2 .8 .2 1.2 .2c0 0 .1 0 .1 0c1.4 0 2.6-1.1 2.6-2.6c0-0.3 0-0.6-0.1-0.9l-1.5-8.4l6.5-6.4c.7-0.7 1-1.7 .7-2.7c-0.3-1-1.2-1.7-2.1-1.8l-9.1-1.3l-4-8.2Z"/><path d="M1761 697.7c-1.9-3.8-8-3.8-9.9 0l-8.4 17.1l-18.8 2.7c-2.1 .3-3.8 1.8-4.5 3.7c-0.6 2-0.1 4.2 1.4 5.7l13.6 13.2l-3.2 18.8c-0.3 2.1 .5 4.1 2.2 5.4c1 .7 2.1 1 3.2 1c.9 0 1.8-0.2 2.6-0.6l16.8-8.9l16.9 8.7c.8 .4 1.6 .5 2.5 .5c.1 0 .1 0 .1 0c3.1 0 5.5-2.3 5.5-5.4c0-0.7-0.1-1.2-0.3-1.8l-3.1-17.7l13.7-13.2c1.5-1.5 2-3.7 1.3-5.7c-0.6-2-2.3-3.4-4.4-3.7l-18.8-2.7l-8.4-17.1Z"/><path d="M1658.3 817.2c-2.4-4.7-10.2-4.7-12.5 0l-10.8 21.7l-23.9 3.5c-2.6 .3-4.8 2.3-5.6 4.7c-0.8 2.6-0.1 5.4 1.8 7.2l17.3 16.9l-4.1 23.8c-0.5 2.6 .6 5.3 2.7 6.9c1.3 .9 2.7 1.3 4.1 1.3c1.2 0 2.3-0.3 3.3-0.9l21.4-11.3l21.4 11.2c1 .5 2.1 .6 3.2 .6c.1 0 .1 0 .1 0c3.9 0 7.1-3 7.1-6.8c0-0.9-0.2-1.6-0.5-2.4l-3.8-22.4l17.2-16.9c2-1.8 2.6-4.6 1.8-7.2c-0.8-2.5-3-4.4-5.6-4.7l-23.9-3.5l-10.7-21.7Z"/><path d="M1531.4 1001.8c-0.7-1.4-3.1-1.4-3.8 0l-3.3 6.7l-7.3 1c-0.8 .1-1.5 .7-1.7 1.5c-0.3 .8-0.1 1.6 .5 2.2l5.3 5.1l-1.3 7.3c-0.1 .8 .2 1.6 .9 2.1c.4 .3 .8 .4 1.3 .4c.3 0 .6-0.1 .9-0.2l6.6-3.5l6.5 3.4c.4 .2 .7 .2 1 .2c.1 0 .1 0 .1 0c1.2 0 2.1-0.9 2.1-2.1c0-0.3 0-0.5-0.1-0.7l-1.2-6.9l5.3-5.1c.6-0.6 .8-1.4 .5-2.2c-0.2-0.8-0.9-1.4-1.7-1.5l-7.3-1l-3.3-6.7Z"/><path d="M1148.7 1238.8c-1.9-3.8-8.2-3.8-10 0l-8.6 17.4l-19.1 2.7c-2.2 .3-3.9 1.8-4.6 3.8c-0.6 2.1-0.1 4.3 1.4 5.8l13.9 13.5l-3.3 19.1c-0.3 2.1 .5 4.2 2.2 5.5c1 .7 2.2 1 3.3 1c.9 0 1.8-0.2 2.6-0.7l17.1-9l17.2 8.9c.8 .4 1.7 .5 2.6 .5c0 0 .1 0 .1 0c3.1 0 5.6-2.4 5.6-5.5c0-0.7-0.1-1.2-0.3-1.9l-3.1-17.9l13.8-13.5c1.5-1.5 2.1-3.7 1.4-5.8c-0.6-2-2.4-3.5-4.5-3.8l-19.1-2.7l-8.6-17.4Z"/><path d="M890.3 864.1c-1.7-3.4-7.4-3.4-9.1 0l-7.7 15.7l-17.3 2.5c-1.9 .3-3.5 1.7-4.1 3.5c-0.6 1.8-0.1 3.8 1.3 5.2l12.5 12.2l-3 17.2c-0.3 1.9 .5 3.8 2.1 5c.9 .6 1.9 .9 2.9 .9c.8 0 1.7-0.2 2.4-0.6l15.4-8.2l15.5 8.1c.8 .4 1.6 .4 2.4 .4c0 0 .1 0 .1 0c2.8 0 5.1-2.1 5.1-4.9c0-0.7-0.1-1.1-0.4-1.7l-2.8-16.2l12.5-12.2c1.4-1.4 1.9-3.4 1.3-5.2c-0.6-1.9-2.2-3.2-4.1-3.5l-17.3-2.5l-7.7-15.7Z"/><path d="M641.7 991.3c-1-2-4.3-2-5.4 0l-4.6 9.4l-10.3 1.4c-1.1 .2-2 1-2.4 2.1c-0.3 1.1 0 2.3 .8 3.1l7.4 7.2l-1.7 10.3c-0.2 1.1 .2 2.3 1.2 3c.5 .3 1.1 .5 1.7 .5c.5 0 1-0.1 1.4-0.3l9.2-4.9l9.2 4.8c.5 .2 1 .2 1.4 .2c.1 0 .1 0 .1 0c1.7 0 3-1.2 3-2.9c0-0.4 0-0.7-0.2-1l-1.6-9.7l7.4-7.2c.8-0.8 1.1-2 .8-3.1c-0.4-1.1-1.3-1.9-2.5-2.1l-10.2-1.4l-4.7-9.4Z"/><path d="M894.4 717.2c-1.5-3-6.4-3-7.9 0l-6.7 13.7l-15.1 2.1c-1.6 .3-3 1.5-3.5 3c-0.5 1.7-0.1 3.4 1.1 4.6l10.9 10.6l-2.6 15c-0.3 1.6 .4 3.3 1.7 4.3c.8 .6 1.7 .8 2.6 .8c.7 0 1.5-0.2 2.1-0.5l13.4-7.1l13.5 7c.6 .3 1.3 .4 2 .4c.1 0 .1 0 .1 0c2.5 0 4.5-1.9 4.5-4.3c0-0.6-0.1-1-0.3-1.5l-2.5-14.1l10.9-10.6c1.2-1.2 1.6-2.9 1.1-4.6c-0.5-1.6-1.9-2.7-3.5-3l-15.1-2.1l-6.7-13.7Z"/><path d="M33.4 1668c-1.5-3-6.4-3-7.9 0l-6.7 13.7l-15.1 2.1c-1.6 .3-3 1.5-3.5 3c-0.5 1.7-0.1 3.4 1.1 4.6l10.9 10.6l-2.6 15c-0.3 1.6 .4 3.3 1.7 4.3c.8 .6 1.7 .8 2.6 .8c.7 0 1.5-0.1 2.1-0.5l13.4-7.1l13.5 7c.6 .3 1.3 .4 2 .4c.1 0 .1 0 .1 0c2.5 0 4.5-1.9 4.5-4.3c0-0.6-0.1-1-0.3-1.5l-2.5-14.1l10.9-10.6c1.2-1.2 1.6-2.9 1.1-4.6c-0.5-1.6-1.9-2.7-3.5-3l-15.1-2.1l-6.7-13.7Z"/><path d="M397.8 1360c-1.5-3-6.4-3-7.9 0l-6.7 13.7l-15.1 2.1c-1.6 .3-3 1.5-3.5 3c-0.5 1.7-0.1 3.4 1.1 4.6l10.9 10.6l-2.6 15c-0.3 1.6 .4 3.3 1.7 4.3c.8 .6 1.7 .8 2.6 .8c.7 0 1.5-0.1 2.1-0.5l13.4-7.1l13.5 7c.6 .3 1.3 .4 2 .4c.1 0 .1 0 .1 0c2.5 0 4.5-1.9 4.5-4.3c0-0.6-0.1-1-0.3-1.5l-2.5-14.1l10.9-10.6c1.2-1.2 1.6-2.9 1.1-4.6c-0.5-1.6-1.9-2.7-3.5-3l-15.1-2.1l-6.7-13.7Z"/><path d="M1935.1-212.3c-1.5-3-6.4-3-7.9 0l-6.7 13.7l-15.1 2.1c-1.6 .3-3 1.5-3.5 3c-0.5 1.7-0.1 3.4 1.1 4.6l10.9 10.6l-2.6 15c-0.3 1.6 .4 3.3 1.8 4.3c.7 .6 1.6 .8 2.5 .8c.7 0 1.5-0.2 2.1-0.5l13.4-7.1l13.5 7c.7 .3 1.3 .4 2 .4c.1 0 .1 0 .1 0c2.5 0 4.5-1.9 4.5-4.3c0-0.6-0.1-1-0.3-1.5l-2.5-14.1l10.9-10.6c1.2-1.2 1.6-2.9 1.1-4.6c-0.5-1.6-1.9-2.7-3.5-3l-15.1-2.1l-6.7-13.7Z"/><path d="M2401.5-12.6c-1.2-2.4-5.1-2.4-6.3 0l-5.3 10.8l-12 1.8c-1.3 .1-2.5 1.1-2.9 2.4c-0.4 1.2 0 2.6 .9 3.6l8.7 8.4l-2.1 11.9c-0.2 1.4 .4 2.7 1.4 3.5c.7 .4 1.4 .7 2.1 .7c.5 0 1.1-0.2 1.6-0.5l10.7-5.6l10.8 5.5c.5 .3 1 .3 1.6 .3c0 0 .1 0 .1 0c1.9 0 3.5-1.4 3.5-3.4c0-0.4-0.1-0.7-0.2-1.2l-2-11.2l8.7-8.4c.9-1 1.3-2.4 .9-3.6c-0.4-1.3-1.5-2.3-2.9-2.4l-11.9-1.8l-5.4-10.8Z"/><path d="M2105.9-317c-1.7-3.6-7.2-3.6-8.9 0l-7.6 16.5l-16.9 2.6c-1.9 .3-3.4 1.8-4 3.7c-0.6 1.9-0.1 4 1.3 5.4l12.2 12.9l-2.9 18.1c-0.3 2 .5 4 2 5.2c.9 .7 1.8 1 2.9 1c.8 0 1.6-0.2 2.3-0.6l15.1-8.6l15.2 8.4c.7 .4 1.5 .5 2.2 .5c.1 0 .1 0 .1 0c2.8 0 5-2.2 5-5.2c0-0.7-0.1-1.2-0.3-1.8l-2.7-17l12.2-12.9c1.4-1.4 1.8-3.5 1.3-5.4c-0.6-2-2.2-3.4-4-3.7l-17-2.6l-7.5-16.5Z"/></g><g transform="translate(256,273.3) translate(-258.4,-258.3)" style="animation: 3s linear infinite both q92bkj576ua5ny17s5dx6idn_t;"><g transform="translate(258.4,258.3) scale(1.104,1.104) translate(-256,-256)"><path d="M485.5 26.4c-0.3-1.8-1.7-3.3-3.5-3.7c-58.6-14.3-193.9 36.7-267.2 110c-13.1 13-25 27.1-35.7 42.1c-22.6-2-45.2-0.3-64.5 8.1c-54.3 23.9-70.2 86.3-74.6 113.2c-0.1 .5-0.1 1.1-0.1 1.6c0 5.3 4.4 9.7 9.6 9.7c.4 0 .7-0.1 1.1-0.1l87.3-9.6c.1 6.6 .5 13.1 1.2 19.7c.4 4.5 2.4 8.8 5.7 12l33.8 33.7c3.2 3.2 7.5 5.3 12 5.7c6.5 .7 13 1.1 19.6 1.2l-9.6 87.2c0 .3 0 .7 0 1c0 5.3 4.3 9.7 9.6 9.7c.5 0 1.1-0.1 1.6-0.2c26.8-4.3 89.4-20.1 113.2-74.5c8.4-19.2 10.1-41.7 8.1-64.2c15.1-10.7 29.2-22.6 42.2-35.7c73.6-73.1 124.3-205.5 110.2-266.9Zm-183.5 179.6c-9-9-14.1-21.2-14.1-33.9c0-26.4 21.7-48 48-48c26.3 0 48 21.6 48 48c0 12.7-5.1 24.9-14.1 33.9c-9 9-21.2 14.1-33.9 14.1c-12.7 0-24.9-5.1-33.9-14.1Z" fill-rule="nonzero"/></g><g transform="translate(99.4,417.3) scale(1.104,1.104) translate(-112,-400)"><path d="M168.4 399.4c-5.5 5.5-14.3 7.7-24.8 9.5c-23.8 4-44.8-16.5-40.5-40.5c1.6-9.1 6.4-21.9 9.4-24.9c.8-0.8 1.3-2 1.3-3.1c0-2.4-2-4.4-4.3-4.4c-0.2 0-0.4 0-0.6 0c-13.3 1.7-25.7 7.7-35.2 17.2c-23.5 23.5-25.7 110.8-25.7 110.8c0 0 87.4-2.2 110.9-25.8c9.5-9.4 15.5-21.8 17.1-35.1c.4-4.2-4.7-6.7-7.6-3.7Z" fill-rule="nonzero" transform="translate(112,400) translate(-112,-400)" style="animation: 3s linear infinite both h3zpbepozjf685w9u35f999d_t;"/></g></g></svg>
